/* XPM */
static char * arrow_left_double_xpm[] = {
"16 16 106 2",
"  	c None",
". 	c #004E00",
"+ 	c #337133",
"@ 	c #458145",
"# 	c #2C6A2C",
"$ 	c #3C743C",
"% 	c #458245",
"& 	c #83C083",
"* 	c #408240",
"= 	c #3D7E3D",
"- 	c #70AA70",
"; 	c #397939",
"> 	c #085408",
", 	c #529052",
"' 	c #70B370",
") 	c #6BB16B",
"! 	c #398539",
"~ 	c #499149",
"{ 	c #5DA35D",
"] 	c #589B58",
"^ 	c #2D792D",
"/ 	c #0F5C0F",
"( 	c #509350",
"_ 	c #5BA45B",
": 	c #57A557",
"< 	c #52A552",
"[ 	c #4EA44E",
"} 	c #499F49",
"| 	c #449944",
"1 	c #409040",
"2 	c #237D23",
"3 	c #166517",
"4 	c #468746",
"5 	c #479447",
"6 	c #439943",
"7 	c #3E9D3E",
"8 	c #3A9F3A",
"9 	c #349F34",
"0 	c #309B30",
"a 	c #2B942B",
"b 	c #278927",
"c 	c #1B811B",
"d 	c #1F671F",
"e 	c #3A773A",
"f 	c #347F34",
"g 	c #308830",
"h 	c #2B922B",
"i 	c #259825",
"j 	c #1F9D1F",
"k 	c #1B9E1B",
"l 	c #189B18",
"m 	c #159315",
"n 	c #118611",
"o 	c #138513",
"p 	c #0D5C0E",
"q 	c #034703",
"r 	c #015B01",
"s 	c #016E01",
"t 	c #007F00",
"u 	c #009000",
"v 	c #009D00",
"w 	c #00A300",
"x 	c #009A00",
"y 	c #008C00",
"z 	c #09890A",
"A 	c #0E7010",
"B 	c #096809",
"C 	c #007500",
"D 	c #008A00",
"E 	c #00AE00",
"F 	c #00B800",
"G 	c #00B700",
"H 	c #00AB00",
"I 	c #009900",
"J 	c #0C920D",
"K 	c #0D7D0F",
"L 	c #108211",
"M 	c #008F00",
"N 	c #00A500",
"O 	c #00BB00",
"P 	c #07CD07",
"Q 	c #00C900",
"R 	c #00B600",
"S 	c #00A000",
"T 	c #0F9611",
"U 	c #09820C",
"V 	c #19971B",
"W 	c #01A401",
"X 	c #00BA00",
"Y 	c #17B819",
"Z 	c #00B302",
"` 	c #00B500",
" .	c #009E00",
"..	c #139815",
"+.	c #1E9D1F",
"@.	c #07AD07",
"#.	c #16AB18",
"$.	c #009A02",
"%.	c #069706",
"&.	c #169518",
"*.	c #1A9A1E",
"=.	c #29A52C",
"-.	c #189B1C",
";.	c #299C2C",
">.	c #038E06",
",.	c #039406",
"                                ",
"                  .       .     ",
"                + @     # $     ",
"              % & *   = - ;     ",
"          > , ' ) ! ~ { ] ^     ",
"        / ( _ : < [ } | 1 2     ",
"      3 4 5 6 7 8 9 0 a b c     ",
"    d e f g h i j k l m n o     ",
"    p q r s t u v w w x y z     ",
"      A B C D v E F G H I J     ",
"        K L M N O P Q R S T     ",
"          U V W X Y Z `  ...    ",
"              +.@.#.  $.%.&.    ",
"                *.=.    -.;.    ",
"                  >.      ,.    ",
"                                "};
