/* XPM */
static char * arrow_right_double_xpm[] = {
"16 16 106 2",
"  	c None",
". 	c #004E00",
"+ 	c #3C733C",
"@ 	c #2C682C",
"# 	c #458145",
"$ 	c #337133",
"% 	c #397539",
"& 	c #70A670",
"* 	c #3D7C3D",
"= 	c #408240",
"- 	c #83C183",
"; 	c #458345",
"> 	c #2D752D",
", 	c #589658",
"' 	c #5D9F5D",
") 	c #499049",
"! 	c #398539",
"~ 	c #6BB26B",
"{ 	c #70B570",
"] 	c #529452",
"^ 	c #085408",
"/ 	c #237723",
"( 	c #408840",
"_ 	c #449444",
": 	c #499C49",
"< 	c #4EA34E",
"[ 	c #52A752",
"} 	c #57A957",
"| 	c #5BA95B",
"1 	c #509950",
"2 	c #0F5F0F",
"3 	c #1B7B1B",
"4 	c #277F27",
"5 	c #2B8D2B",
"6 	c #309730",
"7 	c #349E34",
"8 	c #3AA23A",
"9 	c #3EA33E",
"0 	c #43A043",
"a 	c #479C47",
"b 	c #469246",
"c 	c #166917",
"d 	c #137D13",
"e 	c #117911",
"f 	c #158915",
"g 	c #189618",
"h 	c #1B9D1B",
"i 	c #1FA11F",
"j 	c #25A125",
"k 	c #2B9C2B",
"l 	c #309530",
"m 	c #348B34",
"n 	c #3A833A",
"o 	c #1F6E1F",
"p 	c #09800A",
"q 	c #007B00",
"r 	c #008C00",
"s 	c #009A00",
"t 	c #00A300",
"u 	c #009D00",
"v 	c #009000",
"w 	c #018001",
"x 	c #016F01",
"y 	c #035C03",
"z 	c #0D650E",
"A 	c #0C870D",
"B 	c #008500",
"C 	c #009900",
"D 	c #00AB00",
"E 	c #00B700",
"F 	c #00B800",
"G 	c #00AE00",
"H 	c #008A00",
"I 	c #097B09",
"J 	c #0E7610",
"K 	c #0F8B11",
"L 	c #008900",
"M 	c #00A000",
"N 	c #00B600",
"O 	c #07CA07",
"P 	c #00CC00",
"Q 	c #00BB00",
"R 	c #00A500",
"S 	c #109411",
"T 	c #0D7F0F",
"U 	c #138D15",
"V 	c #008700",
"W 	c #009E00",
"X 	c #00A502",
"Y 	c #17B619",
"Z 	c #00D000",
"` 	c #01BA01",
" .	c #19A21B",
"..	c #09820C",
"+.	c #168B18",
"@.	c #068206",
"#.	c #009202",
"$.	c #16AA18",
"%.	c #07B807",
"&.	c #1EA31F",
"*.	c #28942B",
"=.	c #18961C",
"-.	c #28A42B",
";.	c #1A9C1E",
">.	c #039406",
",.	c #038E06",
"                                ",
"    .       .                   ",
"    + @     # $                 ",
"    % & *   = - ;               ",
"    > , ' ) ! ~ { ] ^           ",
"    / ( _ : < [ } | 1 2         ",
"    3 4 5 6 7 8 9 0 a b c       ",
"    d e f g h i j k l m n o     ",
"    p q r s t t u v w x y z     ",
"    A B C D E F G u H I J       ",
"    K L M N O P Q R S T         ",
"    U V W X Y Z `  ...          ",
"    +.@.#.  $.%.&.              ",
"    *.=.    -.;.                ",
"    >.      ,.                  ",
"                                "};
