/* XPM */
static char * create_in_tabs_xpm[] = {
"16 16 8 1",
" 	c None",
".	c #00C200",
"+	c #FFFF00",
"@	c #FFFFFF",
"#	c #808000",
"$	c #585858",
"%	c #A0A0A0",
"&	c #DCDCDC",
"         ...    ",
"  +++++  ...    ",
" ++@@@@@.....@+ ",
" +..............",
" +@.............",
" +@@............",
" +@@#...........",
" +@@#+......... ",
" +@##+......... ",
" +@#+$......... ",
" +@#+$......... ",
" +##+$...%&&... ",
" +##+..&&%&&&...",
" +#++.&&&%&&&&&.",
" #+++$&&&%&&&&& ",
"                "};
