/* XPM */
static char * dialog_close_xpm[] = {
"16 16 145 2",
"  	c None",
". 	c #8B0000",
"+ 	c #940202",
"@ 	c #B03535",
"# 	c #C56060",
"$ 	c #C76565",
"% 	c #B74444",
"& 	c #990909",
"* 	c #8D0000",
"= 	c #8E0000",
"- 	c #AA1D1D",
"; 	c #DB8989",
"> 	c #E7A7A7",
", 	c #E8A7A7",
"' 	c #E29A9A",
") 	c #B73535",
"! 	c #920000",
"~ 	c #AB1111",
"{ 	c #DA7D7A",
"] 	c #DE8982",
"^ 	c #E18B83",
"/ 	c #E18A84",
"( 	c #E18784",
"_ 	c #DF8484",
": 	c #DB8181",
"< 	c #DC8181",
"[ 	c #B82929",
"} 	c #9E0000",
"| 	c #CA4842",
"1 	c #D17F6E",
"2 	c #F6E5E2",
"3 	c #D48B77",
"4 	c #DB7C5F",
"5 	c #DC7860",
"6 	c #CC6D62",
"7 	c #F2DBDB",
"8 	c #D48888",
"9 	c #CD5454",
"0 	c #A70303",
"a 	c #8F0000",
"b 	c #AF0302",
"c 	c #CF583A",
"d 	c #CC927F",
"e 	c #FFFFFF",
"f 	c #F9F3F1",
"g 	c #C47958",
"h 	c #BE643F",
"i 	c #EEDBD6",
"j 	c #DCB5B2",
"k 	c #BE3837",
"l 	c #B91010",
"m 	c #950000",
"n 	c #990000",
"o 	c #B90900",
"p 	c #D14407",
"q 	c #C65511",
"r 	c #C49279",
"s 	c #F7F1EE",
"t 	c #EADAD4",
"u 	c #D7B8B0",
"v 	c #B13615",
"w 	c #C5200C",
"x 	c #BB0200",
"y 	c #A00000",
"z 	c #BD1000",
"A 	c #D24500",
"B 	c #DA5F00",
"C 	c #C15C00",
"D 	c #B68D7F",
"E 	c #D3BEB9",
"F 	c #A54005",
"G 	c #D24A00",
"H 	c #CB2F00",
"I 	c #BF0D00",
"J 	c #A70000",
"K 	c #A60000",
"L 	c #BE0D00",
"M 	c #D04100",
"N 	c #D65C00",
"O 	c #B15812",
"P 	c #E3D3CD",
"Q 	c #F4EEED",
"R 	c #AD6232",
"S 	c #D15900",
"T 	c #D14200",
"U 	c #C21600",
"V 	c #AC0000",
"W 	c #A80000",
"X 	c #B70400",
"Y 	c #C73100",
"Z 	c #B54912",
"` 	c #E8D6CD",
" .	c #E1C7AD",
"..	c #CDA477",
"+.	c #F6F0ED",
"@.	c #BB6832",
"#.	c #CC4A00",
"$.	c #BD1100",
"%.	c #AD0000",
"&.	c #B10000",
"*.	c #B31500",
"=.	c #CC8B78",
"-.	c #E6C6AD",
";.	c #C96E05",
">.	c #D47C00",
",.	c #DAAA73",
"'.	c #E7CAB8",
").	c #B93700",
"!.	c #B30300",
"~.	c #AB0000",
"{.	c #B50000",
"].	c #AE0200",
"^.	c #AC1B01",
"/.	c #D08266",
"(.	c #BF4D05",
"_.	c #CE6100",
":.	c #D46C00",
"<.	c #CE6900",
"[.	c #DA975C",
"}.	c #C25410",
"|.	c #B11000",
"1.	c #B40000",
"2.	c #BA0000",
"3.	c #AB0200",
"4.	c #AA1300",
"5.	c #B32C00",
"6.	c #BB3E00",
"7.	c #C04A00",
"8.	c #C14B00",
"9.	c #B83600",
"0.	c #AC0B00",
"a.	c #B60000",
"b.	c #B00000",
"c.	c #9A0000",
"d.	c #C00000",
"e.	c #B20000",
"f.	c #A70200",
"g.	c #A50900",
"h.	c #A50B00",
"i.	c #A70600",
"j.	c #AF0000",
"k.	c #BF0000",
"l.	c #BB0000",
"m.	c #BC0000",
"n.	c #B30000",
"                                ",
"        . + @ # $ % & *         ",
"      = - ; > , , , ' ) !       ",
"    * ~ { ] ^ / ( _ : < [ !     ",
"    } | 1 2 3 4 5 6 7 8 9 0 .   ",
"  a b c d e f g h i e j k l m   ",
"  n o p q r e s t e u v w x y   ",
"  y z A B C D e e E F G H I J   ",
"  K L M N O P e e Q R S T U V   ",
"  W X Y Z ` e  ...e +.@.#.$.%.  ",
"  y &.*.=.e -.;.>.,.e '.).!.~.  ",
"    {.].^./.(._.:.<.[.}.|.1.    ",
"    n 2.3.4.5.6.7.8.9.0.a.b.    ",
"      c.d.e.f.g.h.i.j.k.&.      ",
"          ~.2.l.2.m.n.          ",
"                                "};
