/* XPM */
static char * helpgrep_xpm[] = {
"16 16 45 1",
" 	c None",
".	c #CBACCB",
"+	c #967596",
"@	c #DFDFDF",
"#	c #CBAECB",
"$	c #800080",
"%	c #303030",
"&	c #C3C3C3",
"*	c #CCB1CC",
"=	c #CDB4CD",
"-	c #C0C000",
";	c #CFB7CF",
">	c #800880",
",	c #800878",
"'	c #FFFF00",
")	c #F6EE08",
"!	c #D1BBD1",
"~	c #D3BFD3",
"{	c #800B75",
"]	c #A0A0A0",
"^	c #D4C1D4",
"/	c #A86CA8",
"(	c #004100",
"_	c #00EE00",
":	c #4C1BA4",
"<	c #811071",
"[	c #7B007B",
"}	c #C7C5C7",
"|	c #AB6CAB",
"1	c #876187",
"2	c #B5B6C6",
"3	c #7D007D",
"4	c #C3C0C3",
"5	c #D7CDD7",
"6	c #04B23F",
"7	c #896DAE",
"8	c #BFBBBF",
"9	c #E2E2E2",
"0	c #2E2E34",
"a	c #BBB8BB",
"b	c #C3C5E3",
"c	c #A88BA8",
"d	c #B8B5B8",
"e	c #C5C7E3",
"f	c #B5B3B5",
"       .+@      ",
"      #$$%&     ",
"     *$$$$$%&   ",
"    =$$$--$$$%& ",
"   ;$>,''')$$$$&",
"  !$$$$$$$'$$$% ",
" ~$$$${$''-$$%] ",
"^$$$$$$-$$$$%&] ",
"/%%%$$'$$$$%& ]&",
"/& (__:<$[%& ]%}",
"|1__ 2_%3%& ]%4 ",
"5%67   &%& ]%8  ",
" 9_0$__   ]%a   ",
"  _b]%_c ]%d    ",
"  __ e_%$%f     ",
"   ___ 9]]      "};
