/* XPM */
static char *dummy[]={
"16 16 7 1",
". c None",
"c c #585858",
"b c #808000",
"e c #a0a0a0",
"d c #dcdcdc",
"# c #ffff00",
"a c #ffffff",
"................",
"..#####.........",
".##aaaaaaaaaaa#.",
".#aaaaaaaaaaaa#.",
".#aaabbbbaaaaa#.",
".#aaab##bbbbbbb.",
".#aabb#########.",
".#aab##########.",
".#abb#ccccccccc.",
".#ab#cdddeddddd.",
".#ab#cdddeddddd.",
".#bb#cdddeddddd.",
".#bb#cdddeddddd.",
".#b##cdddeddddd.",
".b###cdddeddddd.",
"................"};
