/* XPM */
static char * tabmove_xpm[] = {
"16 16 137 2",
"  	c None",
". 	c #A0C69A",
"+ 	c #67A761",
"@ 	c #63A558",
"# 	c #68A958",
"$ 	c #6DAC58",
"% 	c #72AE58",
"& 	c #75B058",
"* 	c #6DAB58",
"= 	c #68A858",
"- 	c #63A458",
"; 	c #6BA966",
"> 	c #9AC295",
", 	c #5A9E58",
"' 	c #99C299",
") 	c #97B397",
"! 	c #97B297",
"~ 	c #61A061",
"{ 	c #479145",
"] 	c #8AB88A",
"^ 	c #91B091",
"/ 	c #00F600",
"( 	c #589958",
"_ 	c #3F8A3D",
": 	c #87AA87",
"< 	c #7AAE7A",
"[ 	c #539353",
"} 	c #498846",
"| 	c #1AEF1A",
"1 	c #71A871",
"2 	c #6AA56A",
"3 	c #4E8F4E",
"4 	c #488A46",
"5 	c #1CF31C",
"6 	c #64AB64",
"7 	c #5AA35A",
"8 	c #5A9E5A",
"9 	c #5A9B5A",
"0 	c #5A9C5A",
"a 	c #4F8D4E",
"b 	c #247321",
"c 	c #65A065",
"d 	c #69A369",
"e 	c #4AA84A",
"f 	c #4AAB4A",
"g 	c #4FAB4F",
"h 	c #9FBB9F",
"i 	c #92AD92",
"j 	c #449044",
"k 	c #308230",
"l 	c #0F650E",
"m 	c #0E640A",
"n 	c #006700",
"o 	c #358E35",
"p 	c #5AF05A",
"q 	c #169C16",
"r 	c #16A116",
"s 	c #15A115",
"t 	c #0D990D",
"u 	c #B2DCB2",
"v 	c #EFEFEF",
"w 	c #7BA07B",
"x 	c #016601",
"y 	c #0D620B",
"z 	c #12660C",
"A 	c #006B00",
"B 	c #007A00",
"C 	c #269926",
"D 	c #31AA31",
"E 	c #00A000",
"F 	c #249A24",
"G 	c #309B30",
"H 	c #309730",
"I 	c #3A943A",
"J 	c #D1DCD1",
"K 	c #E3E3E3",
"L 	c #7A9C7A",
"M 	c #13640F",
"N 	c #16690E",
"O 	c #006F00",
"P 	c #007F00",
"Q 	c #008E00",
"R 	c #009D00",
"S 	c #22B222",
"T 	c #F9F9F9",
"U 	c #FEFEFE",
"V 	c #F6F6F6",
"W 	c #E9E9E9",
"X 	c #ECECEC",
"Y 	c #578A51",
"Z 	c #1B6B10",
"` 	c #007100",
" .	c #008000",
"..	c #009000",
"+.	c #01B001",
"@.	c #5DD65D",
"#.	c #6DDB6D",
"$.	c #6CD26C",
"%.	c #6AC46A",
"&.	c #C8D4C8",
"*.	c #EAEAEA",
"=.	c #B4D1B4",
"-.	c #236F1A",
";.	c #1F6D11",
">.	c #007000",
",.	c #00AB00",
"'.	c #00B600",
").	c #00AC00",
"!.	c #76B176",
"~.	c #E7E7E7",
"{.	c #B2D3B2",
"].	c #097509",
"^.	c #1F6B11",
"/.	c #2C751A",
"(.	c #006C00",
"_.	c #008800",
":.	c #009500",
"<.	c #00A700",
"[.	c #00A800",
"}.	c #00A100",
"|.	c #AFD6AF",
"1.	c #ADD3AD",
"2.	c #097F09",
"3.	c #266F16",
"4.	c #478030",
"5.	c #307715",
"6.	c #2D7912",
"7.	c #2D7C12",
"8.	c #2D8012",
"9.	c #2C8212",
"0.	c #2B8312",
"a.	c #2A8112",
"b.	c #2A7E12",
"c.	c #2A7A12",
"d.	c #2A7612",
"e.	c #2E7416",
"f.	c #2F6E1A",
"                                ",
"  . + @ # $ % & & % * = - ; >   ",
"  , ' ' ) ! ' ' ' ' ' ' ' ' ~   ",
"  { ] ^ / / / / ] ] ] ] ] ] (   ",
"  _ : / / / / / / < < < < < [   ",
"  } / / / / / | / 1 2 2 2 2 3   ",
"  4 / / / / / 5 / 6 7 8 9 0 a   ",
"  b c / / d e f f g h i j k l   ",
"  m n o p / q r s t u v w x y   ",
"  z A B C D E F G H I J K L M   ",
"  N O P Q R S T U U V W K X Y   ",
"  Z `  ...E +.@.#.$.%.&.*.=.-.  ",
"  ;.>.P Q R ,.'.'.).!.~.{.].^.  ",
"  /.(.B _.:.E <.[.}.|.1.2.(.3.  ",
"  4.5.6.7.8.9.0.0.a.b.c.d.e.f.  ",
"                                "};
