/* XPM */
static char * tabmove_end_xpm[] = {
"16 16 84 1",
" 	c None",
".	c #A0C69A",
"+	c #67A761",
"@	c #63A558",
"#	c #68A958",
"$	c #6DAC58",
"%	c #72AE58",
"&	c #75B058",
"*	c #6DAB58",
"=	c #68A858",
"-	c #FFFFFF",
";	c #E1EEE1",
">	c #00F600",
",	c #5A9E58",
"'	c #99C299",
")	c #97B397",
"!	c #97B297",
"~	c #EBF3EB",
"{	c #479145",
"]	c #8AB88A",
"^	c #91B091",
"/	c #37DC37",
"(	c #E8F1E8",
"_	c #3F8A3D",
":	c #87AA87",
"<	c #17E717",
"[	c #09F009",
"}	c #1EE31E",
"|	c #E4EFE4",
"1	c #498846",
"2	c #EEFDEE",
"3	c #6AA56A",
"4	c #E1EDE1",
"5	c #488A46",
"6	c #02F502",
"7	c #6EB76E",
"8	c #DEEBDE",
"9	c #247321",
"0	c #65A065",
"a	c #D1F1D1",
"b	c #0E640A",
"c	c #006700",
"d	c #358E35",
"e	c #5AF05A",
"f	c #15A115",
"g	c #1ED11E",
"h	c #EEFCEE",
"i	c #FAFAFA",
"j	c #DDFBDD",
"k	c #12660C",
"l	c #FCFDFC",
"m	c #E3EFE3",
"n	c #E2E8E2",
"o	c #E3E3E3",
"p	c #16690E",
"q	c #B7E3B7",
"r	c #E5FDE5",
"s	c #EFF7EF",
"t	c #EBF7EB",
"u	c #F3FBF3",
"v	c #FEFEFE",
"w	c #FBFBFB",
"x	c #EEEEEE",
"y	c #2EF62E",
"z	c #23F423",
"A	c #E1F3E1",
"B	c #1F6D11",
"C	c #007000",
"D	c #007F00",
"E	c #00B900",
"F	c #00C200",
"G	c #1BF41B",
"H	c #2C751A",
"I	c #006C00",
"J	c #009500",
"K	c #00A000",
"L	c #66F066",
"M	c #0DF20D",
"N	c #478030",
"O	c #2D7C12",
"P	c #2D8012",
"Q	c #63A352",
"R	c #258910",
"S	c #258610",
"                ",
" .+@#$%&&%*=-;> ",
" ,'')!''''''-~> ",
" {]^>>>>]]>/-(> ",
" _:-->>-><[}-|> ",
" 1>-->>-2>33-4> ",
" 5>>-->6-->7-8> ",
" 90>>-->>-->-a> ",
" bcde>--fghi-j> ",
" k-------lmno-> ",
" pqrstuvvvwxow> ",
" >>>>--yz-A>--> ",
" BCD--EF-->G--> ",
" HI--JK-->LM--> ",
" N--OP-->QRS--> ",
"                "};
