/* XPM */
static char * tabmove_start_xpm[] = {
"16 16 54 1",
" 	c None",
".	c #00F600",
"+	c #FFFFFF",
"@	c #68A958",
"#	c #6DAC58",
"$	c #72AE58",
"%	c #75B058",
"&	c #6DAB58",
"*	c #68A858",
"=	c #63A458",
"-	c #6BA966",
";	c #9AC295",
">	c #97B397",
",	c #97B297",
"'	c #99C299",
")	c #61A061",
"!	c #8AB88A",
"~	c #589958",
"{	c #7AAE7A",
"]	c #539353",
"^	c #4AAB4A",
"/	c #4FAB4F",
"(	c #449044",
"_	c #308230",
":	c #0F650E",
"<	c #15A115",
"[	c #0D990D",
"}	c #309730",
"|	c #3A943A",
"1	c #008E00",
"2	c #578A51",
"3	c #009000",
"4	c #236F1A",
"5	c #009D00",
"6	c #1F6B11",
"7	c #008800",
"8	c #009500",
"9	c #00A000",
"0	c #00A700",
"a	c #00A800",
"b	c #00A100",
"c	c #097F09",
"d	c #006C00",
"e	c #266F16",
"f	c #2D7C12",
"g	c #2D8012",
"h	c #2C8212",
"i	c #2B8312",
"j	c #2A8112",
"k	c #2A7E12",
"l	c #2A7A12",
"m	c #2A7612",
"n	c #2E7416",
"o	c #2F6E1A",
"                ",
" .++@#$%%$&*=-; ",
" .++>,.++''++') ",
" .++..++!!++!!~ ",
" .++.++..++{{{] ",
" .+++++++++++++ ",
" .+++++++++++++ ",
" .++.++^^/++(_: ",
" .++..++<[.++.. ",
" .++...++}|+++. ",
" .++1...++..++2 ",
" .++3....+....4 ",
" .++15........6 ",
" .++7890ab..cde ",
" .++fghiijklmno ",
"                "};
