/* XPM */
static char * tabmove_left_xpm[] = {
"16 16 95 2",
"  	c None",
". 	c #A0C69A",
"+ 	c #67A761",
"@ 	c #63A558",
"# 	c #68A958",
"$ 	c #6DAC58",
"% 	c #72AE58",
"& 	c #75B058",
"* 	c #6DAB58",
"= 	c #68A858",
"- 	c #63A458",
"; 	c #6BA966",
"> 	c #9AC295",
", 	c #5A9E58",
"' 	c #99C299",
") 	c #97B397",
"! 	c #00F600",
"~ 	c #FFFFFF",
"{ 	c #61A061",
"] 	c #479145",
"^ 	c #8AB88A",
"/ 	c #91B091",
"( 	c #589958",
"_ 	c #3F8A3D",
": 	c #87AA87",
"< 	c #7AAE7A",
"[ 	c #539353",
"} 	c #498846",
"| 	c #6AA56A",
"1 	c #4E8F4E",
"2 	c #488A46",
"3 	c #5A9C5A",
"4 	c #4F8D4E",
"5 	c #247321",
"6 	c #65A065",
"7 	c #69A369",
"8 	c #4AA84A",
"9 	c #4AAB4A",
"0 	c #4FAB4F",
"a 	c #9FBB9F",
"b 	c #92AD92",
"c 	c #449044",
"d 	c #308230",
"e 	c #0F650E",
"f 	c #0E640A",
"g 	c #006700",
"h 	c #169C16",
"i 	c #16A116",
"j 	c #15A115",
"k 	c #0D990D",
"l 	c #12660C",
"m 	c #006B00",
"n 	c #007A00",
"o 	c #269926",
"p 	c #249A24",
"q 	c #309B30",
"r 	c #309730",
"s 	c #3A943A",
"t 	c #16690E",
"u 	c #006F00",
"v 	c #007F00",
"w 	c #008E00",
"x 	c #578A51",
"y 	c #1B6B10",
"z 	c #007100",
"A 	c #008000",
"B 	c #009000",
"C 	c #236F1A",
"D 	c #1F6D11",
"E 	c #007000",
"F 	c #009D00",
"G 	c #1F6B11",
"H 	c #2C751A",
"I 	c #006C00",
"J 	c #008800",
"K 	c #009500",
"L 	c #00A000",
"M 	c #00A700",
"N 	c #00A800",
"O 	c #00A100",
"P 	c #097F09",
"Q 	c #266F16",
"R 	c #478030",
"S 	c #307715",
"T 	c #2D7912",
"U 	c #2D7C12",
"V 	c #2D8012",
"W 	c #2C8212",
"X 	c #2B8312",
"Y 	c #2A8112",
"Z 	c #2A7E12",
"` 	c #2A7A12",
" .	c #2A7612",
"..	c #2E7416",
"+.	c #2F6E1A",
"                                ",
"  . + @ # $ % & & % * = - ; >   ",
"  , ' ' ) ! ~ ' ' ' ' ' ' ' {   ",
"  ] ^ / ~ ~ ~ ! ^ ^ ^ ^ ^ ^ (   ",
"  _ : ~ ~ ! ! ! ! < < < < < [   ",
"  } ~ ~ ~ ~ ~ ~ ~ ~ ~ ~ ~ | 1   ",
"  2 ~ ~ ~ ~ ~ ~ ~ ~ ~ ~ ~ 3 4   ",
"  5 6 ~ ~ 7 8 9 9 0 a b c d e   ",
"  f g ! ~ ~ h i j k ! ! ! ! !   ",
"  l m n o ~ ~ p q r s ! ! ! !   ",
"  t u v w ! ~ ! ! ! ! ! ! ! x   ",
"  y z A B ! ! ! ! ! ! ! ! ! C   ",
"  D E v w F ! ! ! ! ! ! ! ! G   ",
"  H I n J K L M N O ! ! P I Q   ",
"  R S T U V W X X Y Z `  ...+.  ",
"                                "};
