/* XPM */
static char * tabs_xpm[] = {
"16 16 51 1",
" 	c None",
".	c #3583F1",
"+	c #77ABF6",
"@	c #2E7EF2",
"#	c #C4DCFB",
"$	c #EEF5FE",
"%	c #EFF5FE",
"&	c #287BF2",
"*	c #B5D1FA",
"=	c #E7F0FE",
"-	c #E8F1FE",
";	c #2277F0",
">	c #95AFD1",
",	c #7B7B7C",
"'	c #747474",
")	c #1E75F1",
"!	c #97C0F9",
"~	c #737374",
"{	c #D7D7D7",
"]	c #FFFFFF",
"^	c #1F75F0",
"/	c #85B5F7",
"(	c #D1E4FD",
"_	c #656565",
":	c #1D74F0",
"<	c #ABCDFB",
"[	c #ADCEFB",
"}	c #2D2D2D",
"|	c #4F4F50",
"1	c #3E3E3E",
"2	c #3F3F3F",
"3	c #3C3C3C",
"4	c #383838",
"5	c #343434",
"6	c #297CF1",
"7	c #353535",
"8	c #3583F2",
"9	c #414141",
"0	c #408AF3",
"a	c #A1C6FA",
"b	c #4D4D4D",
"c	c #418BF3",
"d	c #3684F2",
"e	c #4C92F4",
"f	c #8FBBF9",
"g	c #585858",
"h	c #438CF3",
"i	c #5899F5",
"j	c #7CB0F8",
"k	c #646464",
"l	c #4F93F4",
"                ",
"                ",
"                ",
"        .++++++ ",
"       @#$%%%%% ",
"      &*=------ ",
"     ;>,''''''' ",
"    )!~{]]]]]]] ",
"   ^/(_]]]]]]]] ",
"   :<[}]]|12345 ",
"   6[[7]]7[[[[[ ",
"   8[[9]]9[[[[[ ",
"   0aab]]baacd8 ",
"   effg]]gffh   ",
"   ijjk]]kjjl   ",
"                "};
